<mxfile host="65bd71144e" scale="3" border="NaN">
    <diagram id="mTNQnJVdJxkT3bLXfCZn" name="Page-1">
        <mxGraphModel dx="1231" dy="1096" grid="1" gridSize="10" guides="1" tooltips="1" connect="1" arrows="1" fold="1" page="1" pageScale="1" pageWidth="827" pageHeight="1169" background="#FFFFFF" math="0" shadow="0">
            <root>
                <mxCell id="0"/>
                <mxCell id="1" parent="0"/>
                <mxCell id="69" value="" style="edgeStyle=none;html=1;strokeColor=#000000;" parent="1" source="2" target="42" edge="1">
                    <mxGeometry relative="1" as="geometry"/>
                </mxCell>
                <mxCell id="2" value="&lt;font data-font-src=&quot;https://fonts.googleapis.com/css?family=andika&quot;&gt;Début&lt;/font&gt;" style="whiteSpace=wrap;html=1;direction=west;arcSize=50;labelBorderColor=none;fontFamily=andika;fontSource=https%3A%2F%2Ffonts.googleapis.com%2Fcss%3Ffamily%3Dandika;fillColor=#dae8fc;strokeColor=#6c8ebf;rounded=1;gradientColor=#7ea6e0;fontColor=#000000;" parent="1" vertex="1">
                    <mxGeometry x="420" y="100" width="120" height="60" as="geometry"/>
                </mxCell>
                <mxCell id="54" value="" style="edgeStyle=none;html=1;strokeColor=#000000;" parent="1" source="14" target="25" edge="1">
                    <mxGeometry relative="1" as="geometry"/>
                </mxCell>
                <mxCell id="58" style="edgeStyle=none;html=1;strokeColor=#000000;entryX=0.5;entryY=0;entryDx=0;entryDy=0;" parent="1" source="14" target="22" edge="1">
                    <mxGeometry relative="1" as="geometry">
                        <mxPoint x="800" y="550" as="targetPoint"/>
                        <Array as="points">
                            <mxPoint x="480" y="550"/>
                            <mxPoint x="650" y="550"/>
                        </Array>
                    </mxGeometry>
                </mxCell>
                <mxCell id="14" value="Match avec le nom de la recette" style="rhombus;whiteSpace=wrap;html=1;labelBorderColor=none;fontFamily=andika;fontSource=https%3A%2F%2Ffonts.googleapis.com%2Fcss%3Ffamily%3Dandika;fillColor=#fff2cc;strokeColor=#d6b656;rounded=1;gradientColor=#ffd966;fontColor=#000000;" parent="1" vertex="1">
                    <mxGeometry x="420" y="395" width="120" height="120" as="geometry"/>
                </mxCell>
                <mxCell id="65" value="" style="edgeStyle=none;html=1;strokeColor=#000000;" parent="1" source="22" target="64" edge="1">
                    <mxGeometry relative="1" as="geometry"/>
                </mxCell>
                <mxCell id="22" value="Stockage de la recette" style="whiteSpace=wrap;html=1;labelBorderColor=none;fontFamily=andika;fontSource=https%3A%2F%2Ffonts.googleapis.com%2Fcss%3Ffamily%3Dandika;fillColor=#f8cecc;strokeColor=#b85450;rounded=1;gradientColor=#ea6b66;fontColor=#000000;" parent="1" vertex="1">
                    <mxGeometry x="590" y="570" width="120" height="60" as="geometry"/>
                </mxCell>
                <mxCell id="55" value="" style="edgeStyle=none;html=1;strokeColor=#000000;" parent="1" source="25" target="53" edge="1">
                    <mxGeometry relative="1" as="geometry"/>
                </mxCell>
                <mxCell id="60" value="" style="edgeStyle=none;html=1;strokeColor=#000000;" parent="1" source="25" target="22" edge="1">
                    <mxGeometry relative="1" as="geometry"/>
                </mxCell>
                <mxCell id="25" value="Match avec la description de la recette" style="rhombus;whiteSpace=wrap;html=1;labelBorderColor=none;fontFamily=andika;fontSource=https%3A%2F%2Ffonts.googleapis.com%2Fcss%3Ffamily%3Dandika;fillColor=#fff2cc;strokeColor=#d6b656;rounded=1;gradientColor=#ffd966;fontColor=#000000;" parent="1" vertex="1">
                    <mxGeometry x="590" y="395" width="120" height="120" as="geometry"/>
                </mxCell>
                <mxCell id="68" value="" style="edgeStyle=none;html=1;strokeColor=#000000;" parent="1" source="26" target="39" edge="1">
                    <mxGeometry relative="1" as="geometry"/>
                </mxCell>
                <mxCell id="26" value="Affichage des recettes dans l'application" style="shape=process;whiteSpace=wrap;html=1;backgroundOutline=1;labelBorderColor=none;fontFamily=andika;fontSource=https%3A%2F%2Ffonts.googleapis.com%2Fcss%3Ffamily%3Dandika;fillColor=#e6d0de;strokeColor=#996185;rounded=1;gradientColor=#d5739d;fontColor=#000000;" parent="1" vertex="1">
                    <mxGeometry x="590" y="930" width="120" height="60" as="geometry"/>
                </mxCell>
                <mxCell id="29" value="Non" style="text;html=1;align=center;verticalAlign=middle;whiteSpace=wrap;fontColor=#000000;labelBorderColor=none;fontFamily=andika;fontSource=https%3A%2F%2Ffonts.googleapis.com%2Fcss%3Ffamily%3Dandika;fillColor=#FFFFFF;rounded=1;" parent="1" vertex="1">
                    <mxGeometry x="660" y="800" width="40" height="20" as="geometry"/>
                </mxCell>
                <mxCell id="78" style="edgeStyle=none;html=1;strokeColor=#000000;" parent="1" source="31" edge="1">
                    <mxGeometry relative="1" as="geometry">
                        <mxPoint x="480" y="330" as="targetPoint"/>
                    </mxGeometry>
                </mxCell>
                <mxCell id="31" value="Recette suivante" style="whiteSpace=wrap;html=1;labelBorderColor=none;fontFamily=andika;fontSource=https%3A%2F%2Ffonts.googleapis.com%2Fcss%3Ffamily%3Dandika;fillColor=#f5f5f5;strokeColor=#666666;rounded=1;gradientColor=#b3b3b3;fontColor=#000000;" parent="1" vertex="1">
                    <mxGeometry x="590" y="300" width="120" height="60" as="geometry"/>
                </mxCell>
                <mxCell id="35" value="Oui" style="text;html=1;align=center;verticalAlign=middle;whiteSpace=wrap;fontColor=#000000;labelBorderColor=none;fontFamily=andika;fontSource=https%3A%2F%2Ffonts.googleapis.com%2Fcss%3Ffamily%3Dandika;fillColor=#FFFFFF;rounded=1;" parent="1" vertex="1">
                    <mxGeometry x="490" y="520" width="40" height="20" as="geometry"/>
                </mxCell>
                <mxCell id="36" value="Non" style="text;html=1;align=center;verticalAlign=middle;whiteSpace=wrap;fontColor=#000000;labelBorderColor=none;fontFamily=andika;fontSource=https%3A%2F%2Ffonts.googleapis.com%2Fcss%3Ffamily%3Dandika;fillColor=#FFFFFF;rounded=1;" parent="1" vertex="1">
                    <mxGeometry x="710" y="430" width="40" height="20" as="geometry"/>
                </mxCell>
                <mxCell id="39" value="&lt;font data-font-src=&quot;https://fonts.googleapis.com/css?family=andika&quot;&gt;Fin&lt;br&gt;&lt;/font&gt;" style="whiteSpace=wrap;html=1;direction=west;arcSize=50;labelBorderColor=none;fontFamily=andika;fontSource=https%3A%2F%2Ffonts.googleapis.com%2Fcss%3Ffamily%3Dandika;fillColor=#dae8fc;strokeColor=#6c8ebf;rounded=1;gradientColor=#7ea6e0;fontColor=#000000;" parent="1" vertex="1">
                    <mxGeometry x="590" y="1030" width="120" height="60" as="geometry"/>
                </mxCell>
                <mxCell id="77" style="edgeStyle=none;html=1;entryX=0.5;entryY=0;entryDx=0;entryDy=0;strokeColor=#000000;" parent="1" source="42" target="14" edge="1">
                    <mxGeometry relative="1" as="geometry"/>
                </mxCell>
                <mxCell id="42" value="Saisie utilisateur" style="shape=trapezoid;perimeter=trapezoidPerimeter;whiteSpace=wrap;html=1;fixedSize=1;direction=west;fillColor=#d5e8d4;strokeColor=#82b366;fontFamily=andika;fontSource=https%3A%2F%2Ffonts.googleapis.com%2Fcss%3Ffamily%3Dandika;gradientColor=#97d077;fontColor=#000000;" parent="1" vertex="1">
                    <mxGeometry x="420" y="190" width="120" height="75" as="geometry"/>
                </mxCell>
                <mxCell id="67" value="" style="edgeStyle=none;html=1;strokeColor=#000000;" parent="1" source="45" target="26" edge="1">
                    <mxGeometry relative="1" as="geometry"/>
                </mxCell>
                <mxCell id="45" value="Classement par ordre alphabétique" style="whiteSpace=wrap;html=1;labelBorderColor=none;fontFamily=andika;fontSource=https%3A%2F%2Ffonts.googleapis.com%2Fcss%3Ffamily%3Dandika;fillColor=#f5f5f5;strokeColor=#666666;rounded=1;gradientColor=#b3b3b3;fontColor=#000000;" parent="1" vertex="1">
                    <mxGeometry x="590" y="830" width="120" height="60" as="geometry"/>
                </mxCell>
                <mxCell id="61" style="edgeStyle=none;html=1;strokeColor=#000000;" parent="1" source="53" edge="1">
                    <mxGeometry relative="1" as="geometry">
                        <mxPoint x="650" y="570" as="targetPoint"/>
                        <Array as="points">
                            <mxPoint x="820" y="550"/>
                            <mxPoint x="650" y="550"/>
                        </Array>
                    </mxGeometry>
                </mxCell>
                <mxCell id="73" style="edgeStyle=none;html=1;strokeColor=#000000;entryX=1;entryY=0.5;entryDx=0;entryDy=0;" parent="1" source="53" target="31" edge="1">
                    <mxGeometry relative="1" as="geometry">
                        <mxPoint x="1040" y="455" as="targetPoint"/>
                        <Array as="points">
                            <mxPoint x="930" y="455"/>
                            <mxPoint x="930" y="330"/>
                        </Array>
                    </mxGeometry>
                </mxCell>
                <mxCell id="53" value="Match avec les ingrédients de la recette" style="rhombus;whiteSpace=wrap;html=1;labelBorderColor=none;fontFamily=andika;fontSource=https%3A%2F%2Ffonts.googleapis.com%2Fcss%3Ffamily%3Dandika;fillColor=#fff2cc;strokeColor=#d6b656;rounded=1;gradientColor=#ffd966;fontColor=#000000;" parent="1" vertex="1">
                    <mxGeometry x="760" y="395" width="120" height="120" as="geometry"/>
                </mxCell>
                <mxCell id="56" value="Non" style="text;html=1;align=center;verticalAlign=middle;whiteSpace=wrap;fontColor=#000000;labelBorderColor=none;fontFamily=andika;fontSource=https%3A%2F%2Ffonts.googleapis.com%2Fcss%3Ffamily%3Dandika;fillColor=#FFFFFF;rounded=1;" parent="1" vertex="1">
                    <mxGeometry x="540" y="430" width="40" height="20" as="geometry"/>
                </mxCell>
                <mxCell id="62" value="Oui" style="text;html=1;align=center;verticalAlign=middle;whiteSpace=wrap;fontColor=#000000;labelBorderColor=none;fontFamily=andika;fontSource=https%3A%2F%2Ffonts.googleapis.com%2Fcss%3Ffamily%3Dandika;fillColor=#FFFFFF;rounded=1;" parent="1" vertex="1">
                    <mxGeometry x="660" y="520" width="40" height="20" as="geometry"/>
                </mxCell>
                <mxCell id="63" value="Oui" style="text;html=1;align=center;verticalAlign=middle;whiteSpace=wrap;fontColor=#000000;labelBorderColor=none;fontFamily=andika;fontSource=https%3A%2F%2Ffonts.googleapis.com%2Fcss%3Ffamily%3Dandika;fillColor=#FFFFFF;rounded=1;" parent="1" vertex="1">
                    <mxGeometry x="827" y="520" width="40" height="20" as="geometry"/>
                </mxCell>
                <mxCell id="66" value="" style="edgeStyle=none;html=1;strokeColor=#000000;" parent="1" source="64" target="45" edge="1">
                    <mxGeometry relative="1" as="geometry"/>
                </mxCell>
                <mxCell id="82" style="edgeStyle=none;html=1;strokeColor=#000000;" parent="1" source="64" edge="1">
                    <mxGeometry relative="1" as="geometry">
                        <mxPoint x="930" y="450" as="targetPoint"/>
                        <Array as="points">
                            <mxPoint x="930" y="730"/>
                        </Array>
                    </mxGeometry>
                </mxCell>
                <mxCell id="64" value="Reste des &lt;br&gt;recettes&lt;br&gt;&amp;nbsp;à tester" style="rhombus;whiteSpace=wrap;html=1;labelBorderColor=none;fontFamily=andika;fontSource=https%3A%2F%2Ffonts.googleapis.com%2Fcss%3Ffamily%3Dandika;fillColor=#fff2cc;strokeColor=#d6b656;rounded=1;gradientColor=#ffd966;fontColor=#000000;" parent="1" vertex="1">
                    <mxGeometry x="590" y="670" width="120" height="120" as="geometry"/>
                </mxCell>
                <mxCell id="75" value="Non" style="text;html=1;align=center;verticalAlign=middle;whiteSpace=wrap;fontColor=#000000;labelBorderColor=none;fontFamily=andika;fontSource=https%3A%2F%2Ffonts.googleapis.com%2Fcss%3Ffamily%3Dandika;fillColor=#FFFFFF;rounded=1;" parent="1" vertex="1">
                    <mxGeometry x="880" y="430" width="40" height="20" as="geometry"/>
                </mxCell>
                <mxCell id="76" value="Oui" style="text;html=1;align=center;verticalAlign=middle;whiteSpace=wrap;fontColor=#000000;labelBorderColor=none;fontFamily=andika;fontSource=https%3A%2F%2Ffonts.googleapis.com%2Fcss%3Ffamily%3Dandika;fillColor=#FFFFFF;rounded=1;" parent="1" vertex="1">
                    <mxGeometry x="827" y="700" width="40" height="20" as="geometry"/>
                </mxCell>
                <mxCell id="83" value="" style="rounded=0;whiteSpace=wrap;html=1;strokeColor=#000000;strokeWidth=2;fillColor=none;arcSize=0;" parent="1" vertex="1">
                    <mxGeometry x="310" y="70" width="730" height="1050" as="geometry"/>
                </mxCell>
            </root>
        </mxGraphModel>
    </diagram>
</mxfile>